<svg width="155" height="24" viewBox="0 0 155 24" fill="none" xmlns="http://www.w3.org/2000/svg">
<path d="M15.5027 0.117859C15.8287 0.815072 16.1905 1.49905 16.5071 2.19957C16.5656 2.37277 16.6467 2.53439 16.7316 2.69545C17.2336 3.71976 17.7317 4.74572 18.2353 5.77003C18.3092 5.90848 18.3748 6.04803 18.4355 6.19255C17.1371 6.80923 15.8485 7.45515 14.555 8.08231C14.4646 8.12478 14.3774 8.17332 14.2925 8.22517C14.0437 8.38237 13.7668 8.48607 13.5065 8.62563C13.1292 8.80379 12.7602 8.99795 12.3807 9.1695C12.5599 8.63611 12.7469 8.10492 12.9273 7.57153C12.0034 7.29408 11.0116 7.27422 10.0811 7.53402C9.07939 7.80927 8.16926 8.39892 7.509 9.20149C6.9017 9.93125 6.50731 10.8303 6.38265 11.7719C6.27564 12.6048 6.36555 13.4603 6.66507 14.2464C6.98113 15.0804 7.52003 15.8344 8.21394 16.3959C8.9801 17.0231 9.93215 17.423 10.9184 17.5201C11.9035 17.626 12.9146 17.4252 13.7933 16.969C13.2389 18.3546 12.6967 19.7457 12.154 21.1363C13.5539 21.678 14.9467 22.2367 16.3472 22.7773C14.7647 23.539 12.994 23.9147 11.2394 23.8799C9.38056 23.8568 7.5272 23.3625 5.90221 22.4607C4.11615 21.4733 2.60038 19.9984 1.57 18.2371C0.736545 16.8228 0.215841 15.226 0.0569824 13.5922C-0.153726 11.4856 0.221357 9.32725 1.15851 7.42757C1.88386 5.9333 2.94898 4.60396 4.23861 3.55925C5.60987 2.44613 7.24093 1.65791 8.96686 1.28006C10.9487 0.84541 13.0547 0.94249 14.9842 1.57572C15.1624 1.09307 15.2986 0.589471 15.5027 0.117859Z" fill="#073D49"/>
<path d="M16.507 2.20007C16.5599 2.22159 16.6123 2.2442 16.6647 2.26737C19.2098 3.56913 21.2253 5.84941 22.1939 8.54008C23.0687 10.9384 23.1062 13.6274 22.3004 16.0495C21.5083 18.4632 19.8844 20.5814 17.7679 21.9835C18.0023 22.5246 18.2423 23.0641 18.4729 23.6074C17.763 23.3344 17.0586 23.0464 16.347 22.7778C14.9465 22.2372 13.5538 21.6785 12.1538 21.1368C12.6966 19.7462 13.2388 18.3551 13.7931 16.9695C14.0116 16.4323 14.2184 15.8906 14.4324 15.3517C14.4986 15.1768 14.561 15.0025 14.6503 14.8382C14.823 15.2 14.9603 15.5795 15.1429 15.9364C15.8567 15.168 16.3354 14.1934 16.4761 13.1519C16.5153 12.8 16.5627 12.4575 16.5142 12.1034C16.4469 11.137 16.1032 10.1982 15.524 9.42153C15.1804 8.95102 14.7562 8.57373 14.2923 8.22567C14.3773 8.17382 14.4644 8.12528 14.5549 8.08281C15.8484 7.45565 17.1369 6.80973 18.4353 6.19305C18.3747 6.04854 18.309 5.90898 18.2351 5.77053C17.7315 4.74623 17.2334 3.72026 16.7315 2.69596C16.6465 2.53489 16.5654 2.37327 16.507 2.20007Z" fill="#1298B6"/>
<path d="M25.3208 8.68C25.2275 8.53333 25.1408 8.33333 25.0608 8.08C24.9808 7.82667 24.9408 7.56 24.9408 7.28C24.9408 6.76 25.0541 6.38667 25.2808 6.16C25.5208 5.93333 25.8275 5.82 26.2008 5.82H34.9208C35.0141 5.96667 35.1008 6.16667 35.1808 6.42C35.2608 6.67333 35.3008 6.94 35.3008 7.22C35.3008 7.74 35.1808 8.11333 34.9408 8.34C34.7141 8.56667 34.4141 8.68 34.0408 8.68H31.8208V17.92C31.6741 17.96 31.4408 18 31.1208 18.04C30.8141 18.08 30.5075 18.1 30.2008 18.1C29.8941 18.1 29.6208 18.0733 29.3808 18.02C29.1541 17.98 28.9608 17.9 28.8008 17.78C28.6408 17.66 28.5208 17.4933 28.4408 17.28C28.3608 17.0667 28.3208 16.7867 28.3208 16.44V8.68H25.3208ZM40.2827 18.32C39.496 18.32 38.7627 18.2133 38.0827 18C37.416 17.7733 36.8294 17.44 36.3227 17C35.8294 16.56 35.436 16.0067 35.1427 15.34C34.8627 14.6733 34.7227 13.8933 34.7227 13C34.7227 12.12 34.8627 11.3667 35.1427 10.74C35.436 10.1 35.816 9.58 36.2827 9.18C36.7494 8.76667 37.2827 8.46667 37.8827 8.28C38.4827 8.08 39.096 7.98 39.7227 7.98C40.4294 7.98 41.0694 8.08667 41.6427 8.3C42.2294 8.51333 42.7294 8.80667 43.1427 9.18C43.5694 9.55333 43.896 10 44.1227 10.52C44.3627 11.04 44.4827 11.6067 44.4827 12.22C44.4827 12.6733 44.356 13.02 44.1027 13.26C43.8494 13.5 43.496 13.6533 43.0427 13.72L38.1027 14.46C38.2494 14.9 38.5494 15.2333 39.0027 15.46C39.456 15.6733 39.976 15.78 40.5627 15.78C41.1094 15.78 41.6227 15.7133 42.1027 15.58C42.596 15.4333 42.996 15.2667 43.3027 15.08C43.516 15.2133 43.696 15.4 43.8427 15.64C43.9894 15.88 44.0627 16.1333 44.0627 16.4C44.0627 17 43.7827 17.4467 43.2227 17.74C42.796 17.9667 42.316 18.12 41.7827 18.2C41.2494 18.28 40.7494 18.32 40.2827 18.32ZM39.7227 10.46C39.4027 10.46 39.1227 10.5133 38.8827 10.62C38.656 10.7267 38.4694 10.8667 38.3227 11.04C38.176 11.2 38.0627 11.3867 37.9827 11.6C37.916 11.8 37.876 12.0067 37.8627 12.22L41.2827 11.66C41.2427 11.3933 41.096 11.1267 40.8427 10.86C40.5894 10.5933 40.216 10.46 39.7227 10.46ZM49.8792 15.84C50.1059 15.84 50.3526 15.82 50.6192 15.78C50.8992 15.7267 51.1059 15.66 51.2392 15.58V13.98L49.7992 14.1C49.4259 14.1267 49.1192 14.2067 48.8792 14.34C48.6392 14.4733 48.5192 14.6733 48.5192 14.94C48.5192 15.2067 48.6192 15.4267 48.8192 15.6C49.0326 15.76 49.3859 15.84 49.8792 15.84ZM49.7192 7.98C50.4392 7.98 51.0926 8.05333 51.6792 8.2C52.2792 8.34667 52.7859 8.57333 53.1992 8.88C53.6259 9.17333 53.9526 9.55333 54.1792 10.02C54.4059 10.4733 54.5192 11.0133 54.5192 11.64V16.12C54.5192 16.4667 54.4192 16.7533 54.2192 16.98C54.0326 17.1933 53.8059 17.38 53.5392 17.54C52.6726 18.06 51.4526 18.32 49.8792 18.32C49.1726 18.32 48.5326 18.2533 47.9592 18.12C47.3992 17.9867 46.9126 17.7867 46.4992 17.52C46.0992 17.2533 45.7859 16.9133 45.5592 16.5C45.3459 16.0867 45.2392 15.6067 45.2392 15.06C45.2392 14.14 45.5126 13.4333 46.0592 12.94C46.6059 12.4467 47.4526 12.14 48.5992 12.02L51.2192 11.74V11.6C51.2192 11.2133 51.0459 10.94 50.6992 10.78C50.3659 10.6067 49.8792 10.52 49.2392 10.52C48.7326 10.52 48.2392 10.5733 47.7592 10.68C47.2792 10.7867 46.8459 10.92 46.4592 11.08C46.2859 10.96 46.1392 10.78 46.0192 10.54C45.8992 10.2867 45.8392 10.0267 45.8392 9.76C45.8392 9.41333 45.9192 9.14 46.0792 8.94C46.2526 8.72667 46.5126 8.54667 46.8592 8.4C47.2459 8.25333 47.6992 8.14667 48.2192 8.08C48.7526 8.01333 49.2526 7.98 49.7192 7.98ZM61.6782 10.66C61.3448 10.66 61.0248 10.7133 60.7182 10.82C60.4248 10.9267 60.1648 11.0867 59.9382 11.3C59.7248 11.5 59.5515 11.7533 59.4182 12.06C59.2848 12.3667 59.2182 12.7267 59.2182 13.14C59.2182 13.9667 59.4515 14.5867 59.9182 15C60.3982 15.4133 60.9782 15.62 61.6582 15.62C62.0582 15.62 62.4048 15.5733 62.6982 15.48C62.9915 15.3867 63.2515 15.2867 63.4782 15.18C63.7448 15.3667 63.9448 15.5733 64.0782 15.8C64.2115 16.0133 64.2782 16.2733 64.2782 16.58C64.2782 17.1267 64.0182 17.5533 63.4982 17.86C62.9782 18.1533 62.2582 18.3 61.3382 18.3C60.4982 18.3 59.7382 18.18 59.0582 17.94C58.3782 17.6867 57.7915 17.34 57.2982 16.9C56.8182 16.4467 56.4448 15.9067 56.1782 15.28C55.9115 14.6533 55.7782 13.96 55.7782 13.2C55.7782 12.32 55.9182 11.5533 56.1982 10.9C56.4915 10.2333 56.8848 9.68667 57.3782 9.26C57.8715 8.83333 58.4382 8.51333 59.0782 8.3C59.7315 8.08667 60.4182 7.98 61.1382 7.98C62.0982 7.98 62.8382 8.15333 63.3582 8.5C63.8782 8.84667 64.1382 9.29333 64.1382 9.84C64.1382 10.0933 64.0782 10.3333 63.9582 10.56C63.8382 10.7733 63.6982 10.96 63.5382 11.12C63.3115 11.0133 63.0382 10.9133 62.7182 10.82C62.3982 10.7133 62.0515 10.66 61.6782 10.66ZM75.1833 17.98C75.05 18.02 74.8366 18.06 74.5433 18.1C74.2633 18.14 73.97 18.16 73.6633 18.16C73.37 18.16 73.1033 18.14 72.8633 18.1C72.6366 18.06 72.4433 17.98 72.2833 17.86C72.1233 17.74 71.9966 17.58 71.9033 17.38C71.8233 17.1667 71.7833 16.8933 71.7833 16.56V12.12C71.7833 11.5733 71.6433 11.1933 71.3633 10.98C71.0966 10.7533 70.7633 10.64 70.3633 10.64C70.0966 10.64 69.8433 10.6733 69.6033 10.74C69.3633 10.8067 69.17 10.8867 69.0233 10.98V17.98C68.89 18.02 68.6766 18.06 68.3833 18.1C68.1033 18.14 67.81 18.16 67.5033 18.16C67.21 18.16 66.9433 18.14 66.7033 18.1C66.4766 18.06 66.2833 17.98 66.1233 17.86C65.9633 17.74 65.8366 17.58 65.7433 17.38C65.6633 17.1667 65.6233 16.8933 65.6233 16.56V4.96C65.77 4.93333 65.9833 4.9 66.2633 4.86C66.5566 4.80667 66.85 4.78 67.1433 4.78C67.4366 4.78 67.6966 4.8 67.9233 4.84C68.1633 4.88 68.3633 4.96 68.5233 5.08C68.6833 5.2 68.8033 5.36667 68.8833 5.58C68.9766 5.78 69.0233 6.04667 69.0233 6.38V8.34C69.1966 8.27333 69.4566 8.2 69.8033 8.12C70.1633 8.02667 70.5566 7.98 70.9833 7.98C72.3033 7.98 73.33 8.31333 74.0633 8.98C74.81 9.63333 75.1833 10.6133 75.1833 11.92V17.98ZM76.8025 5.58C76.8025 5.07333 76.9692 4.64667 77.3025 4.3C77.6492 3.95333 78.1025 3.78 78.6625 3.78C79.2225 3.78 79.6692 3.95333 80.0025 4.3C80.3492 4.64667 80.5225 5.07333 80.5225 5.58C80.5225 6.08667 80.3492 6.51333 80.0025 6.86C79.6692 7.20667 79.2225 7.38 78.6625 7.38C78.1025 7.38 77.6492 7.20667 77.3025 6.86C76.9692 6.51333 76.8025 6.08667 76.8025 5.58ZM80.3625 17.98C80.2159 18.0067 79.9959 18.04 79.7025 18.08C79.4225 18.1333 79.1359 18.16 78.8425 18.16C78.5492 18.16 78.2825 18.14 78.0425 18.1C77.8159 18.06 77.6225 17.98 77.4625 17.86C77.3025 17.74 77.1759 17.58 77.0825 17.38C77.0025 17.1667 76.9625 16.8933 76.9625 16.56V8.42C77.1092 8.39333 77.3225 8.36 77.6025 8.32C77.8959 8.26667 78.1892 8.24 78.4825 8.24C78.7759 8.24 79.0359 8.26 79.2625 8.3C79.5025 8.34 79.7025 8.42 79.8625 8.54C80.0225 8.66 80.1425 8.82667 80.2225 9.04C80.3159 9.24 80.3625 9.50667 80.3625 9.84V17.98ZM88.2871 11.84C88.2871 11.4267 88.1671 11.1267 87.9271 10.94C87.7004 10.74 87.3871 10.64 86.9871 10.64C86.7204 10.64 86.4537 10.6733 86.1871 10.74C85.9337 10.8067 85.7137 10.9067 85.5271 11.04V17.98C85.3937 18.02 85.1804 18.06 84.8871 18.1C84.6071 18.14 84.3137 18.16 84.0071 18.16C83.7137 18.16 83.4471 18.14 83.2071 18.1C82.9804 18.06 82.7871 17.98 82.6271 17.86C82.4671 17.74 82.3404 17.58 82.2471 17.38C82.1671 17.1667 82.1271 16.8933 82.1271 16.56V10.56C82.1271 10.2 82.2004 9.90667 82.3471 9.68C82.5071 9.45333 82.7204 9.24667 82.9871 9.06C83.4404 8.74 84.0071 8.48 84.6871 8.28C85.3804 8.08 86.1471 7.98 86.9871 7.98C88.4937 7.98 89.6537 8.31333 90.4671 8.98C91.2804 9.63333 91.6871 10.5467 91.6871 11.72V17.98C91.5537 18.02 91.3404 18.06 91.0471 18.1C90.7671 18.14 90.4737 18.16 90.1671 18.16C89.8737 18.16 89.6071 18.14 89.3671 18.1C89.1404 18.06 88.9471 17.98 88.7871 17.86C88.6271 17.74 88.5004 17.58 88.4071 17.38C88.3271 17.1667 88.2871 16.8933 88.2871 16.56V11.84ZM98.1272 7.98C98.8872 7.98 99.5739 8.08 100.187 8.28C100.814 8.46667 101.341 8.71333 101.767 9.02C102.034 9.20667 102.241 9.41333 102.387 9.64C102.547 9.86667 102.627 10.16 102.627 10.52V17.52C102.627 18.2267 102.494 18.8333 102.227 19.34C101.961 19.86 101.594 20.2867 101.127 20.62C100.674 20.9667 100.134 21.22 99.5072 21.38C98.8939 21.54 98.2339 21.62 97.5272 21.62C96.3139 21.62 95.3605 21.4533 94.6672 21.12C93.9739 20.8 93.6272 20.2733 93.6272 19.54C93.6272 19.2333 93.6872 18.96 93.8072 18.72C93.9405 18.4933 94.0872 18.32 94.2472 18.2C94.6339 18.4133 95.0672 18.5933 95.5472 18.74C96.0405 18.8867 96.5472 18.96 97.0672 18.96C97.7872 18.96 98.3605 18.84 98.7872 18.6C99.2139 18.36 99.4272 17.9733 99.4272 17.44V17.12C98.8805 17.36 98.2139 17.48 97.4272 17.48C96.8272 17.48 96.2539 17.3933 95.7072 17.22C95.1739 17.0333 94.7005 16.7533 94.2872 16.38C93.8872 15.9933 93.5605 15.5 93.3072 14.9C93.0672 14.3 92.9472 13.5867 92.9472 12.76C92.9472 11.9467 93.0739 11.24 93.3272 10.64C93.5939 10.04 93.9539 9.54667 94.4072 9.16C94.8739 8.76 95.4205 8.46667 96.0472 8.28C96.6872 8.08 97.3805 7.98 98.1272 7.98ZM99.3672 10.88C99.2739 10.8267 99.1339 10.7733 98.9472 10.72C98.7739 10.6667 98.5539 10.64 98.2872 10.64C97.6339 10.64 97.1405 10.8267 96.8072 11.2C96.4872 11.56 96.3272 12.08 96.3272 12.76C96.3272 13.5333 96.4872 14.0933 96.8072 14.44C97.1405 14.7733 97.5605 14.94 98.0672 14.94C98.6139 14.94 99.0472 14.8133 99.3672 14.56V10.88ZM106.455 18.06C105.882 18.06 105.428 17.8933 105.095 17.56C104.762 17.2267 104.595 16.7733 104.595 16.2V5.86C104.742 5.83333 104.975 5.8 105.295 5.76C105.615 5.70667 105.922 5.68 106.215 5.68C106.522 5.68 106.788 5.70667 107.015 5.76C107.255 5.8 107.455 5.88 107.615 6C107.775 6.12 107.895 6.28667 107.975 6.5C108.055 6.71333 108.095 6.99333 108.095 7.34V15.24H112.675C112.768 15.3867 112.855 15.5867 112.935 15.84C113.015 16.08 113.055 16.3333 113.055 16.6C113.055 17.1333 112.942 17.5133 112.715 17.74C112.488 17.9533 112.188 18.06 111.815 18.06H106.455ZM118.349 15.84C118.575 15.84 118.822 15.82 119.089 15.78C119.369 15.7267 119.575 15.66 119.709 15.58V13.98L118.269 14.1C117.895 14.1267 117.589 14.2067 117.349 14.34C117.109 14.4733 116.989 14.6733 116.989 14.94C116.989 15.2067 117.089 15.4267 117.289 15.6C117.502 15.76 117.855 15.84 118.349 15.84ZM118.189 7.98C118.909 7.98 119.562 8.05333 120.149 8.2C120.749 8.34667 121.255 8.57333 121.669 8.88C122.095 9.17333 122.422 9.55333 122.649 10.02C122.875 10.4733 122.989 11.0133 122.989 11.64V16.12C122.989 16.4667 122.889 16.7533 122.689 16.98C122.502 17.1933 122.275 17.38 122.009 17.54C121.142 18.06 119.922 18.32 118.349 18.32C117.642 18.32 117.002 18.2533 116.429 18.12C115.869 17.9867 115.382 17.7867 114.969 17.52C114.569 17.2533 114.255 16.9133 114.029 16.5C113.815 16.0867 113.709 15.6067 113.709 15.06C113.709 14.14 113.982 13.4333 114.529 12.94C115.075 12.4467 115.922 12.14 117.069 12.02L119.689 11.74V11.6C119.689 11.2133 119.515 10.94 119.169 10.78C118.835 10.6067 118.349 10.52 117.709 10.52C117.202 10.52 116.709 10.5733 116.229 10.68C115.749 10.7867 115.315 10.92 114.929 11.08C114.755 10.96 114.609 10.78 114.489 10.54C114.369 10.2867 114.309 10.0267 114.309 9.76C114.309 9.41333 114.389 9.14 114.549 8.94C114.722 8.72667 114.982 8.54667 115.329 8.4C115.715 8.25333 116.169 8.14667 116.689 8.08C117.222 8.01333 117.722 7.98 118.189 7.98ZM124.708 4.98C124.841 4.94 125.054 4.9 125.348 4.86C125.641 4.80667 125.941 4.78 126.248 4.78C126.541 4.78 126.801 4.8 127.028 4.84C127.268 4.88 127.468 4.96 127.628 5.08C127.788 5.2 127.908 5.36667 127.988 5.58C128.068 5.78 128.108 6.04667 128.108 6.38V8.34C128.441 8.20667 128.754 8.11333 129.048 8.06C129.354 8.00667 129.688 7.98 130.048 7.98C130.688 7.98 131.294 8.09333 131.868 8.32C132.441 8.54667 132.948 8.88 133.388 9.32C133.828 9.74667 134.174 10.28 134.428 10.92C134.681 11.56 134.808 12.3 134.808 13.14C134.808 14.0067 134.674 14.7667 134.408 15.42C134.154 16.06 133.794 16.5933 133.328 17.02C132.861 17.4467 132.288 17.7733 131.608 18C130.941 18.2133 130.201 18.32 129.388 18.32C128.508 18.32 127.761 18.2133 127.148 18C126.534 17.8 126.014 17.5467 125.588 17.24C125.001 16.8267 124.708 16.2933 124.708 15.64V4.98ZM129.388 15.64C130.001 15.64 130.474 15.4333 130.808 15.02C131.154 14.5933 131.328 13.9667 131.328 13.14C131.328 12.3 131.154 11.6733 130.808 11.26C130.461 10.8467 129.994 10.64 129.408 10.64C129.141 10.64 128.908 10.6667 128.708 10.72C128.521 10.7733 128.314 10.8533 128.088 10.96V15.32C128.234 15.4133 128.408 15.4933 128.608 15.56C128.821 15.6133 129.081 15.64 129.388 15.64ZM135.269 16.38C135.269 15.82 135.443 15.3533 135.789 14.98C136.136 14.6067 136.609 14.42 137.209 14.42C137.809 14.42 138.283 14.6067 138.629 14.98C138.976 15.3533 139.149 15.82 139.149 16.38C139.149 16.94 138.976 17.4067 138.629 17.78C138.283 18.1533 137.809 18.34 137.209 18.34C136.609 18.34 136.136 18.1533 135.789 17.78C135.443 17.4067 135.269 16.94 135.269 16.38ZM144.453 15.84C144.68 15.84 144.927 15.82 145.193 15.78C145.473 15.7267 145.68 15.66 145.813 15.58V13.98L144.373 14.1C144 14.1267 143.693 14.2067 143.453 14.34C143.213 14.4733 143.093 14.6733 143.093 14.94C143.093 15.2067 143.193 15.4267 143.393 15.6C143.607 15.76 143.96 15.84 144.453 15.84ZM144.293 7.98C145.013 7.98 145.667 8.05333 146.253 8.2C146.853 8.34667 147.36 8.57333 147.773 8.88C148.2 9.17333 148.527 9.55333 148.753 10.02C148.98 10.4733 149.093 11.0133 149.093 11.64V16.12C149.093 16.4667 148.993 16.7533 148.793 16.98C148.607 17.1933 148.38 17.38 148.113 17.54C147.247 18.06 146.027 18.32 144.453 18.32C143.747 18.32 143.107 18.2533 142.533 18.12C141.973 17.9867 141.487 17.7867 141.073 17.52C140.673 17.2533 140.36 16.9133 140.133 16.5C139.92 16.0867 139.813 15.6067 139.813 15.06C139.813 14.14 140.087 13.4333 140.633 12.94C141.18 12.4467 142.027 12.14 143.173 12.02L145.793 11.74V11.6C145.793 11.2133 145.62 10.94 145.273 10.78C144.94 10.6067 144.453 10.52 143.813 10.52C143.307 10.52 142.813 10.5733 142.333 10.68C141.853 10.7867 141.42 10.92 141.033 11.08C140.86 10.96 140.713 10.78 140.593 10.54C140.473 10.2867 140.413 10.0267 140.413 9.76C140.413 9.41333 140.493 9.14 140.653 8.94C140.827 8.72667 141.087 8.54667 141.433 8.4C141.82 8.25333 142.273 8.14667 142.793 8.08C143.327 8.01333 143.827 7.98 144.293 7.98ZM150.692 5.58C150.692 5.07333 150.859 4.64667 151.192 4.3C151.539 3.95333 151.992 3.78 152.552 3.78C153.112 3.78 153.559 3.95333 153.892 4.3C154.239 4.64667 154.412 5.07333 154.412 5.58C154.412 6.08667 154.239 6.51333 153.892 6.86C153.559 7.20667 153.112 7.38 152.552 7.38C151.992 7.38 151.539 7.20667 151.192 6.86C150.859 6.51333 150.692 6.08667 150.692 5.58ZM154.252 17.98C154.106 18.0067 153.886 18.04 153.592 18.08C153.312 18.1333 153.026 18.16 152.732 18.16C152.439 18.16 152.172 18.14 151.932 18.1C151.706 18.06 151.512 17.98 151.352 17.86C151.192 17.74 151.066 17.58 150.972 17.38C150.892 17.1667 150.852 16.8933 150.852 16.56V8.42C150.999 8.39333 151.212 8.36 151.492 8.32C151.786 8.26667 152.079 8.24 152.372 8.24C152.666 8.24 152.926 8.26 153.152 8.3C153.392 8.34 153.592 8.42 153.752 8.54C153.912 8.66 154.032 8.82667 154.112 9.04C154.206 9.24 154.252 9.50667 154.252 9.84V17.98Z" fill="#1089A4"/>
</svg>
